<?xml version="1.0" standalone="no"?>
<!DOCTYPE svg PUBLIC "-//W3C//DTD SVG 20010904//EN"
 "http://www.w3.org/TR/2001/REC-SVG-20010904/DTD/svg10.dtd">
<svg version="1.0" xmlns="http://www.w3.org/2000/svg"
 width="600.000000pt" height="291.000000pt" viewBox="0 0 600.000000 291.000000"
 preserveAspectRatio="xMidYMid meet">
<g transform="translate(0.000000,291.000000) scale(0.100000,-0.100000)"
fill="#000000" stroke="none">
<path d="M1244 2788 c-3 -4 15 -29 39 -55 170 -186 382 -479 488 -675 35 -65
49 -83 45 -61 -15 87 -18 247 -7 342 24 199 84 344 169 405 23 16 42 35 42 40
0 13 -769 16 -776 4z m693 -43 c0 -8 -4 -12 -9 -9 -4 3 -8 0 -8 -6 0 -6 -4 -9
-9 -5 -5 3 -15 -10 -21 -29 -6 -19 -15 -36 -20 -38 -5 -2 -21 -39 -36 -83 -15
-44 -29 -87 -32 -95 -3 -8 -4 -19 -3 -24 1 -4 -2 -13 -7 -20 -10 -12 -14 -71
-16 -219 -1 -53 -3 -93 -4 -87 -2 6 -9 7 -15 3 -7 -3 -9 -3 -5 2 4 4 -12 35
-35 69 -23 33 -42 63 -42 66 0 3 -10 19 -22 36 -12 17 -19 35 -15 39 4 5 2 5
-4 2 -12 -7 -54 44 -54 66 0 7 -7 22 -16 33 -8 10 -12 12 -8 4 7 -13 5 -13 -9
-1 -9 7 -17 20 -17 27 0 8 -4 14 -9 14 -6 0 -18 13 -27 29 -10 17 -21 28 -26
25 -4 -3 -5 1 -3 9 3 7 -7 25 -22 39 -35 33 -56 58 -48 58 3 0 -13 16 -35 37
-23 20 -39 42 -36 49 3 7 0 15 -7 18 -7 2 130 5 304 5 270 1 316 -1 316 -14z"/>
<path d="M2062 2784 c-7 -8 -8 -14 -3 -14 10 0 25 19 20 25 -2 1 -10 -3 -17
-11z"/>
<path d="M2972 2782 c2 -8 34 -26 73 -41 79 -30 118 -73 110 -121 -3 -15 -35
-90 -71 -166 -117 -245 -165 -347 -204 -429 -61 -130 -440 -924 -538 -1127
-49 -103 -88 -189 -86 -191 3 -2 56 -139 118 -303 63 -164 119 -300 125 -302
6 -2 30 36 52 84 22 48 123 264 224 478 253 541 251 536 405 866 76 162 164
349 195 415 32 66 70 147 85 180 194 423 212 455 279 518 37 33 93 71 137 93
72 34 82 36 182 38 125 1 187 -12 297 -64 147 -69 272 -198 357 -368 23 -45
42 -81 43 -80 1 2 -2 73 -6 158 -5 85 -10 204 -11 264 l-3 109 -883 1 c-732 1
-882 -1 -880 -12z m863 -28 c-8 -6 -11 -14 -7 -18 4 -4 2 -7 -3 -5 -18 4 -50
-15 -84 -50 -19 -20 -31 -30 -27 -23 11 19 1 14 -20 -10 -12 -14 -14 -18 -4
-13 17 9 -38 -55 -57 -68 -7 -4 -13 -16 -13 -26 0 -10 -3 -21 -7 -25 -5 -4 -8
-11 -9 -14 -1 -12 -43 -106 -54 -122 -6 -8 -17 -31 -25 -50 -22 -50 -32 -65
-42 -63 -4 1 -9 -8 -9 -20 -3 -34 -8 -50 -21 -65 -7 -7 -13 -19 -13 -26 0 -7
-13 -38 -30 -69 -16 -31 -30 -63 -30 -71 0 -8 -16 -37 -35 -65 -19 -29 -30
-49 -25 -46 14 9 12 -7 -4 -27 -7 -10 -17 -14 -21 -10 -5 4 -5 1 -1 -6 7 -12
-26 -84 -51 -110 -7 -7 -10 -19 -7 -26 3 -7 -9 -37 -25 -65 -17 -28 -30 -57
-28 -64 1 -7 -4 -11 -10 -10 -12 3 -17 -12 -16 -44 1 -7 -3 -13 -8 -13 -5 0
-9 -9 -9 -19 0 -11 -4 -22 -9 -26 -5 -3 -17 -27 -27 -53 -10 -26 -26 -58 -36
-71 -10 -13 -18 -34 -18 -48 0 -13 -6 -26 -14 -29 -8 -3 -17 -17 -21 -32 -3
-15 -18 -44 -32 -66 -13 -21 -20 -35 -14 -31 6 3 -8 -31 -31 -77 -23 -45 -43
-87 -44 -93 -1 -5 -14 -32 -29 -60 -14 -27 -24 -42 -21 -32 4 11 2 16 -5 12
-5 -4 -7 -14 -4 -24 2 -9 -4 -33 -15 -54 -11 -20 -17 -37 -13 -37 5 0 3 -4 -2
-8 -20 -14 -46 -63 -39 -74 4 -7 3 -8 -4 -4 -7 4 -12 1 -12 -8 0 -24 -42 -116
-51 -110 -4 2 -11 -1 -15 -7 -4 -8 -3 -9 4 -5 16 10 15 1 -5 -37 -9 -18 -16
-35 -15 -39 1 -5 -2 -8 -7 -8 -5 0 -12 -7 -15 -16 -3 -8 -2 -12 4 -9 5 3 -9
-28 -30 -69 -21 -40 -36 -77 -33 -80 4 -3 1 -6 -5 -6 -7 0 -12 -9 -12 -20 0
-11 -5 -20 -12 -20 -6 0 -9 -3 -5 -6 8 -8 -17 -56 -37 -73 -9 -7 -13 -17 -10
-22 3 -5 0 -9 -5 -9 -6 0 -11 7 -11 15 0 8 -8 34 -19 58 -10 23 -31 76 -46
117 -16 41 -37 95 -47 119 -10 24 -18 49 -18 56 0 7 -7 18 -15 25 -9 7 -14 18
-12 24 2 6 -6 34 -18 61 -12 28 -21 64 -20 80 2 37 82 201 96 197 6 -1 8 2 4
7 -7 12 33 109 52 129 7 7 13 20 13 28 0 9 5 12 12 8 7 -4 8 -3 4 5 -4 6 2 28
13 47 12 20 18 40 15 46 -4 7 -2 8 4 4 8 -5 12 2 12 18 0 14 4 26 10 26 5 0 7
-8 4 -17 -5 -14 -4 -15 4 -4 5 7 8 21 5 30 -2 9 7 34 22 54 14 21 23 43 20 48
-4 5 -2 9 4 9 6 0 8 7 5 15 -4 8 1 17 9 21 9 3 13 12 10 21 -4 10 -2 14 4 10
5 -3 18 17 28 46 10 29 29 71 42 94 13 23 23 49 23 57 0 9 5 16 10 16 6 0 10
7 10 15 0 22 36 76 45 67 5 -4 5 -1 1 6 -4 7 -2 20 6 29 7 9 12 19 11 22 -4
13 58 141 69 141 4 0 4 7 1 17 -4 11 -3 14 5 9 8 -4 12 0 12 11 0 10 11 39 25
64 13 26 21 50 17 54 -4 5 -2 5 4 2 11 -6 20 14 30 60 1 7 12 24 23 39 11 14
18 30 15 35 -3 5 0 9 7 9 7 0 9 3 6 6 -4 4 3 20 14 35 11 16 18 29 14 29 -3 0
3 17 14 38 10 20 19 41 19 46 0 5 4 12 9 15 5 3 26 45 47 94 21 48 42 87 46
87 5 0 8 19 8 43 0 23 1 47 3 52 4 16 -18 60 -37 75 -17 13 -16 11 1 -9 l20
-25 -26 20 c-15 10 -25 22 -22 27 2 4 -3 7 -11 7 -9 0 -16 3 -16 8 0 4 171 7
380 7 279 0 376 -3 365 -11z m871 3 c6 -6 11 -327 6 -327 -12 0 -34 17 -30 23
4 9 -36 59 -103 128 -31 31 -49 55 -41 51 9 -3 13 -1 9 6 -4 6 -20 13 -36 17
-16 3 -32 12 -34 20 -3 7 -22 18 -41 25 -20 6 -34 15 -31 20 6 10 -20 32 -37
29 -23 -3 -38 1 -38 9 0 6 370 6 376 -1z"/>
<path d="M1205 2780 c-3 -5 -1 -10 4 -10 6 0 11 5 11 10 0 6 -2 10 -4 10 -3 0
-8 -4 -11 -10z"/>
<path d="M1250 2691 c0 -6 4 -13 10 -16 6 -3 7 1 4 9 -7 18 -14 21 -14 7z"/>
<path d="M1973 2685 c0 -8 4 -12 9 -9 5 3 6 10 3 15 -9 13 -12 11 -12 -6z"/>
<path d="M1290 2639 c0 -5 5 -7 10 -4 6 3 10 8 10 11 0 2 -4 4 -10 4 -5 0 -10
-5 -10 -11z"/>
<path d="M4405 2628 c5 -26 11 -32 20 -19 3 6 0 11 -7 11 -11 0 -10 2 0 9 11
7 11 9 -1 14 -12 4 -15 0 -12 -15z"/>
<path d="M3743 2591 c0 -11 5 -18 9 -15 4 3 5 11 1 19 -7 21 -12 19 -10 -4z"/>
<path d="M4484 2566 c2 -15 6 -29 9 -32 3 -4 5 6 3 20 -1 14 -5 29 -9 32 -3 3
-4 -6 -3 -20z"/>
<path d="M1386 2531 c-17 -19 -17 -19 0 -17 9 2 18 10 20 19 3 21 1 21 -20 -2z"/>
<path d="M1449 2453 c-13 -16 -12 -17 4 -4 9 7 17 15 17 17 0 8 -8 3 -21 -13z"/>
<path d="M1530 2371 c0 -6 4 -13 10 -16 6 -3 7 1 4 9 -7 18 -14 21 -14 7z"/>
<path d="M3583 2275 c0 -8 4 -12 9 -9 5 3 6 10 3 15 -9 13 -12 11 -12 -6z"/>
<path d="M4740 2230 c-9 -6 -10 -10 -3 -10 6 0 15 5 18 10 8 12 4 12 -15 0z"/>
<path d="M4750 2205 c-11 -13 -10 -14 4 -9 9 3 16 10 16 15 0 13 -6 11 -20 -6z"/>
<path d="M1616 2198 c3 -4 11 -5 19 -1 21 7 19 12 -4 10 -11 0 -18 -5 -15 -9z"/>
<path d="M2886 2125 c-9 -26 -7 -32 5 -12 6 10 9 21 6 23 -2 3 -7 -2 -11 -11z"/>
<path d="M3495 2119 c-4 -6 -5 -12 -2 -15 2 -3 7 2 10 11 7 17 1 20 -8 4z"/>
<path d="M3629 2045 c-10 -22 -33 -74 -52 -115 -19 -41 -88 -187 -152 -325
-65 -137 -132 -281 -150 -320 -18 -38 -44 -96 -59 -127 l-26 -57 -3 -388 c-2
-379 -3 -389 -24 -429 -34 -64 -93 -108 -177 -133 -41 -12 -77 -29 -80 -37 -5
-12 65 -14 509 -14 451 0 514 2 509 15 -3 8 -25 20 -48 25 -98 25 -170 73
-204 134 -16 28 -17 108 -22 921 -5 838 -6 888 -21 850z m-16 -915 c-2 -687 0
-802 13 -814 16 -17 19 -30 4 -21 -18 11 -10 -4 15 -29 14 -14 25 -31 25 -39
0 -7 25 -28 55 -47 30 -19 54 -38 55 -42 0 -9 11 -9 -392 -8 -164 0 -308 5
-320 10 l-23 9 23 0 c13 1 20 5 17 11 -4 6 1 7 11 3 10 -3 15 -2 12 3 -3 5 4
18 15 29 11 11 16 13 12 5 -5 -10 -1 -8 13 4 12 11 20 21 18 24 -3 2 1 11 9
19 34 33 39 86 44 478 l6 390 28 58 c15 32 27 62 27 67 0 6 4 10 10 10 5 0 14
10 21 21 8 16 8 20 0 14 -7 -3 -3 8 8 26 11 18 18 36 15 41 -3 4 0 8 6 8 7 0
9 7 6 16 -3 8 -2 13 2 10 9 -5 49 83 44 96 -1 5 2 8 8 8 5 0 10 7 10 16 0 8 4
12 10 9 6 -4 7 1 3 11 -4 11 -3 15 5 10 7 -4 9 2 6 19 -2 14 0 25 6 25 5 0 10
6 10 14 0 7 7 19 15 26 8 6 14 15 13 18 -1 4 8 29 20 56 12 26 19 53 15 59 -3
5 -1 7 5 3 6 -3 15 8 22 29 7 20 16 32 22 29 6 -4 9 -1 6 7 -4 11 36 109 45
109 1 0 1 -360 0 -800z"/>
<path d="M3410 1925 c0 -5 5 -17 10 -25 5 -8 10 -10 10 -5 0 6 -5 17 -10 25
-5 8 -10 11 -10 5z"/>
<path d="M3390 1901 c0 -6 4 -13 10 -16 6 -3 7 1 4 9 -7 18 -14 21 -14 7z"/>
<path d="M4441 1650 c-60 -82 -185 -200 -257 -242 -76 -44 -184 -88 -219 -88
-43 0 -20 -17 33 -24 61 -8 177 -63 251 -120 71 -55 173 -163 203 -216 13 -22
30 -40 38 -40 13 0 15 49 12 395 -1 217 -6 395 -10 395 -4 0 -27 -27 -51 -60z
m31 -47 c8 -41 -3 -603 -12 -603 -6 0 -10 5 -10 11 0 16 -26 39 -36 31 -5 -4
-6 -3 -2 2 10 12 -10 48 -22 41 -6 -4 -7 1 -3 11 5 13 3 15 -7 9 -10 -6 -12
-4 -7 9 4 9 3 15 -2 12 -5 -3 -23 7 -40 23 -16 15 -33 26 -36 23 -3 -3 -5 1
-5 9 0 9 -16 21 -35 29 -19 8 -35 18 -35 22 0 5 -4 7 -9 4 -5 -3 -14 0 -20 8
-7 8 -24 17 -38 21 -21 5 -24 8 -12 16 11 7 8 9 -11 10 -14 1 -28 1 -32 0 -10
-1 -10 12 -2 33 3 9 13 16 21 16 8 0 34 14 59 30 24 17 44 28 44 25 0 -3 11 2
25 11 14 9 22 21 18 27 -3 5 -2 7 4 4 5 -4 23 7 38 23 15 16 32 27 36 24 5 -3
6 2 3 11 -4 11 -2 14 9 10 10 -4 22 7 37 32 24 40 60 81 72 82 3 1 8 -6 10
-16z"/>
<path d="M4324 1622 c4 -3 14 -7 22 -8 9 -1 13 0 10 4 -4 3 -14 7 -22 8 -9 1
-13 0 -10 -4z"/>
<path d="M4260 1529 c5 -9 6 -20 2 -25 -4 -5 3 0 15 10 25 21 22 35 -6 33 -15
-1 -17 -5 -11 -18z m30 7 c0 -3 -4 -8 -10 -11 -5 -3 -10 -1 -10 4 0 6 5 11 10
11 6 0 10 -2 10 -4z"/>
<path d="M2575 1529 c-11 -17 -13 -59 -3 -53 5 3 7 11 5 17 -2 7 0 20 5 30 9
18 4 24 -7 6z"/>
<path d="M4173 1453 c0 -9 4 -10 14 -2 7 6 13 12 13 14 0 1 -6 2 -13 2 -8 0
-14 -6 -14 -14z"/>
<path d="M3286 1433 c-6 -14 -5 -15 5 -6 7 7 10 15 7 18 -3 3 -9 -2 -12 -12z"/>
<path d="M3182 1424 c-7 -8 -8 -14 -3 -14 10 0 25 19 20 25 -2 1 -10 -3 -17
-11z"/>
<path d="M2490 1380 c0 -5 5 -10 11 -10 5 0 7 5 4 10 -3 6 -8 10 -11 10 -2 0
-4 -4 -4 -10z"/>
<path d="M3925 1350 c-3 -5 -1 -10 4 -10 6 0 11 5 11 10 0 6 -2 10 -4 10 -3 0
-8 -4 -11 -10z"/>
<path d="M2495 1309 c-4 -6 -5 -12 -2 -15 2 -3 7 2 10 11 7 17 1 20 -8 4z"/>
<path d="M3112 1260 c0 -14 2 -19 5 -12 2 6 2 18 0 25 -3 6 -5 1 -5 -13z"/>
<path d="M2426 1217 c3 -10 9 -15 12 -12 3 3 0 11 -7 18 -10 9 -11 8 -5 -6z"/>
<path d="M4264 1098 l-19 -23 23 19 c21 18 27 26 19 26 -2 0 -12 -10 -23 -22z"/>
<path d="M4324 1066 c1 -8 5 -18 8 -22 4 -3 5 1 4 10 -1 8 -5 18 -8 22 -4 3
-5 -1 -4 -10z"/>
<path d="M2344 1053 c4 -8 1 -22 -5 -30 -8 -9 -9 -17 -2 -24 7 -7 15 -4 24 8
13 16 12 17 -3 4 -23 -18 -23 -6 1 28 19 27 19 27 -1 28 -14 1 -18 -3 -14 -14z"/>
<path d="M4355 1010 c-3 -5 -5 -10 -3 -11 33 -8 38 -7 27 7 -14 17 -16 17 -24
4z"/>
<path d="M3096 257 c3 -10 9 -15 12 -12 3 3 0 11 -7 18 -10 9 -11 8 -5 -6z"/>
<path d="M3045 231 c-3 -5 -2 -12 3 -15 5 -3 9 1 9 9 0 17 -3 19 -12 6z"/>
<path d="M2883 135 c0 -8 4 -12 9 -9 5 3 6 10 3 15 -9 13 -12 11 -12 -6z"/>
<path d="M3956 112 c-3 -5 1 -9 9 -9 8 0 12 4 9 9 -3 4 -7 8 -9 8 -2 0 -6 -4
-9 -8z"/>
</g>
</svg>
